<svg xmlns="http://www.w3.org/2000/svg"><defs><symbol id="i-info"><symbol id="s16" viewBox="0 0 16 16"><path d="M8 0C3.59 0 0 3.59 0 8s3.59 8 8 8 8-3.59 8-8-3.59-8-8-8m0 14.5c-3.58 0-6.5-2.92-6.5-6.5S4.42 1.5 8 1.5s6.5 2.92 6.5 6.5-2.92 6.5-6.5 6.5m-.58-8.1h1.01v5.63H7.42zm1.16-1.57c0 .36-.3.66-.66.66s-.65-.3-.65-.66.3-.67.65-.67.66.31.66.67"/></symbol><symbol id="s24" viewBox="0 0 24 24"><path d="M12 0C5.38 0 0 5.38 0 12s5.38 12 12 12 12-5.38 12-12S18.62 0 12 0m0 22.25c-5.65 0-10.25-4.6-10.25-10.25S6.35 1.75 12 1.75 22.25 6.35 22.25 12 17.65 22.25 12 22.25m-.9-13.29h1.57v8.71H11.1zm1.8-2.43c0 .56-.46 1.02-1.02 1.02s-1-.46-1-1.02.46-1.04 1-1.04 1.02.48 1.02 1.04"/></symbol><symbol id="s32" viewBox="0 0 32 32"><path d="M16 0C7.18 0 0 7.18 0 16s7.18 16 16 16 16-7.18 16-16S24.82 0 16 0m0 30C8.28 30 2 23.72 2 16S8.28 2 16 2s14 6.28 14 14-6.28 14-14 14m-1.22-17.99h2.12v11.8h-2.12zm2.44-3.3c0 .76-.62 1.38-1.38 1.38s-1.36-.62-1.36-1.38.62-1.41 1.36-1.41 1.38.65 1.38 1.41"/></symbol><symbol id="s40" viewBox="0 0 40 40"><path d="M20 0C8.97 0 0 8.97 0 20s8.97 20 20 20 20-8.97 20-20S31.03 0 20 0m0 37.75c-9.78 0-17.75-7.96-17.75-17.75S10.22 2.25 20 2.25 37.75 10.21 37.75 20 29.79 37.75 20 37.75m-1.54-22.91h2.67v14.85h-2.67zm3.08-4.14c0 .96-.78 1.74-1.74 1.74s-1.71-.78-1.71-1.74.78-1.77 1.71-1.77 1.74.81 1.74 1.77"/></symbol><symbol id="s48" viewBox="0 0 48 48"><path d="M24 0C10.77 0 0 10.77 0 24s10.77 24 24 24 24-10.77 24-24S37.23 0 24 0m0 45.5C12.15 45.5 2.5 35.86 2.5 24S12.15 2.5 24 2.5 45.5 12.14 45.5 24 35.86 45.5 24 45.5m1.86-32.85c0 1.16-.95 2.1-2.1 2.1s-2.07-.95-2.07-2.1.95-2.14 2.07-2.14 2.1.98 2.1 2.14m-3.72 5.01h3.23v17.95h-3.23z"/></symbol><symbol id="s64" viewBox="0 0 64 64"><path d="M32 0C14.36 0 0 14.36 0 32s14.36 32 32 32 32-14.36 32-32S49.64 0 32 0m0 61.25C15.87 61.25 2.75 48.13 2.75 32S15.87 2.75 32 2.75 61.25 15.87 61.25 32 48.13 61.25 32 61.25M29.46 22.9h4.42v24.59h-4.42zm5.09-6.86c0 1.58-1.3 2.88-2.88 2.88s-2.83-1.3-2.83-2.88 1.3-2.93 2.83-2.93 2.88 1.34 2.88 2.93"/></symbol><use style="display: var(--s16, none)" href="#s16"/><use style="display: var(--s24, none)" href="#s24"/><use style="display: var(--s32, none)" href="#s32"/><use style="display: var(--s40, none)" href="#s40"/><use style="display: var(--s48, none)" href="#s48"/><use style="display: var(--s64, none)" href="#s64"/></symbol></defs><style>@media (max-width: 23.98px) {g{--s16:block;}}@media (min-width: 24px) and (max-width: 31.98px) {g{--s24:block;}}@media (min-width: 32px) and (max-width: 39.98px) {g{--s32:block;}}@media (min-width: 40px) and (max-width: 47.98px) {g{--s40:block;}}@media (min-width: 48px) and (max-width: 63.98px) {g{--s48:block;}}@media (min-width: 64px) {g{--s64:block;}}</style><g><use href="#i-info"/></g></svg>