<svg xmlns="http://www.w3.org/2000/svg"><defs><symbol id="i-warning"><symbol id="s16" viewBox="0 0 16 16"><path d="M15.78 12.24 9.19 1.67c-.28-.44-.73-.66-1.19-.66s-.92.22-1.19.66L.21 12.24c-.58.94.09 2.15 1.19 2.15h13.18c1.1 0 1.78-1.21 1.19-2.15Zm-14.2.65L8 2.6l6.42 10.29zm7.25-1.9c0 .42-.33.78-.83.78s-.83-.35-.83-.78.33-.77.83-.77.83.36.83.77M7.28 6.17h1.44v1.57L8.46 9.8h-.91l-.26-2.06V6.17Z"/></symbol><symbol id="s24" viewBox="0 0 24 24"><path d="M23.68 18.37 13.79 2.52c-.41-.66-1.1-.99-1.79-.99s-1.38.33-1.79.99L.32 18.37c-.87 1.4.14 3.22 1.79 3.22h19.77c1.66 0 2.67-1.82 1.79-3.22Zm-1.48 1.28c-.07.12-.17.18-.31.18H2.11c-.14 0-.24-.06-.31-.18s-.06-.24 0-.36l9.9-15.85c.09-.14.21-.17.3-.17s.22.03.3.17l9.89 15.85c.07.12.08.24 0 .36ZM11.31 14.7l-.4-3.09V9.26h2.16v2.35l-.4 3.09H11.3Zm1.94 1.79c0 .63-.49 1.16-1.25 1.16s-1.25-.53-1.25-1.16.49-1.15 1.25-1.15 1.25.54 1.25 1.15"/></symbol><symbol id="s32" viewBox="0 0 32 32"><path d="M31.57 24.49 18.39 3.36c-.55-.88-1.47-1.32-2.39-1.32s-1.84.44-2.39 1.32L.43 24.49c-1.17 1.87.18 4.29 2.39 4.29h26.36c2.21 0 3.56-2.42 2.39-4.29m-1.68 1.88c-.09.16-.29.42-.71.42H2.82a.79.79 0 0 1-.71-.42c-.09-.16-.2-.47.02-.82L15.31 4.42c.21-.33.52-.38.69-.38s.48.05.69.38l13.18 21.13c.22.35.11.66.02.82m-14.8-6.76-.53-4.13v-3.14h2.89v3.14l-.53 4.13zm2.58 2.38c0 .85-.66 1.55-1.67 1.55s-1.67-.7-1.67-1.55.66-1.54 1.67-1.54 1.67.72 1.67 1.54"/></symbol><symbol id="s40" viewBox="0 0 40 40"><path d="M39.46 30.62 22.99 4.2C22.3 3.1 21.15 2.54 20 2.54s-2.3.55-2.99 1.66L.54 30.62c-1.46 2.34.23 5.36 2.99 5.36h32.95c2.76 0 4.44-3.03 2.99-5.36Zm-1.88 2.47c-.11.19-.43.65-1.1.65H3.52c-.67 0-1-.45-1.1-.65s-.32-.71.03-1.28L18.93 5.39c.33-.54.86-.59 1.07-.59s.74.06 1.07.59l16.48 26.42c.35.57.14 1.08.03 1.28m-18.72-8.58-.66-5.16v-3.92h3.61v3.92l-.66 5.16zm3.23 2.98c0 1.06-.82 1.94-2.09 1.94s-2.08-.88-2.08-1.94.82-1.92 2.08-1.92 2.09.9 2.09 1.92"/></symbol><symbol id="s48" viewBox="0 0 48 48"><path d="M47.36 36.75 27.58 5.05c-.83-1.32-2.2-1.99-3.58-1.99s-2.76.66-3.58 1.99L.64 36.75c-1.75 2.81.27 6.44 3.58 6.44h39.55c3.31 0 5.33-3.63 3.58-6.44Zm-2.09 3.05c-.15.26-.59.88-1.5.88H4.23c-.91 0-1.35-.62-1.5-.88s-.44-.96.04-1.74L22.54 6.37c.45-.73 1.17-.81 1.46-.81s1 .08 1.46.81l19.77 31.7c.48.77.19 1.47.04 1.74ZM22.63 29.42l-.79-6.19v-4.7h4.33v4.7l-.79 6.19h-2.74Zm3.88 3.57c0 1.27-.99 2.33-2.5 2.33s-2.5-1.06-2.5-2.33.99-2.3 2.5-2.3 2.5 1.08 2.5 2.3"/></symbol><symbol id="s64" viewBox="0 0 64 64"><path d="M63.14 49 36.78 6.73c-1.1-1.77-2.94-2.65-4.78-2.65s-3.68.88-4.78 2.65L.86 49c-2.33 3.74.36 8.58 4.78 8.58h52.73c4.42 0 7.11-4.84 4.78-8.58Zm-2.27 4.36c-.25.44-.99 1.47-2.51 1.47H5.64c-1.53 0-2.26-1.03-2.51-1.47s-.73-1.61.07-2.91L29.56 8.19c.54-.86 1.42-1.35 2.44-1.35s1.9.49 2.44 1.35L60.8 50.46c.81 1.29.32 2.46.07 2.91ZM30.18 39.23l-1.06-8.25v-6.27h5.77v6.27l-1.06 8.25h-3.66ZM35.34 44c0 1.7-1.31 3.1-3.33 3.1s-3.34-1.41-3.34-3.1 1.31-3.07 3.34-3.07 3.33 1.44 3.33 3.07"/></symbol><use style="display: var(--s16, none)" href="#s16"/><use style="display: var(--s24, none)" href="#s24"/><use style="display: var(--s32, none)" href="#s32"/><use style="display: var(--s40, none)" href="#s40"/><use style="display: var(--s48, none)" href="#s48"/><use style="display: var(--s64, none)" href="#s64"/></symbol></defs><style>@media (max-width: 23.98px) {g{--s16:block;}}@media (min-width: 24px) and (max-width: 31.98px) {g{--s24:block;}}@media (min-width: 32px) and (max-width: 39.98px) {g{--s32:block;}}@media (min-width: 40px) and (max-width: 47.98px) {g{--s40:block;}}@media (min-width: 48px) and (max-width: 63.98px) {g{--s48:block;}}@media (min-width: 64px) {g{--s64:block;}}</style><g><use href="#i-warning"/></g></svg>